<?xml version="1.0" standalone="no"?>
<!DOCTYPE svg PUBLIC "-//W3C//DTD SVG 20010904//EN"
 "http://www.w3.org/TR/2001/REC-SVG-20010904/DTD/svg10.dtd">
<svg version="1.0" xmlns="http://www.w3.org/2000/svg"
 width="266.000000pt" height="266.000000pt" viewBox="0 0 266.000000 266.000000"
 preserveAspectRatio="xMidYMid meet">
<metadata>
Created by potrace 1.14, written by Peter Selinger 2001-2017
</metadata>
<g transform="translate(0.000000,266.000000) scale(0.100000,-0.100000)"
fill="#000000" stroke="none">
<path d="M1155 2639 c-465 -64 -869 -376 -1049 -812 -20 -47 -48 -135 -63
-194 -25 -98 -27 -126 -28 -298 0 -264 31 -402 142 -616 187 -363 525 -615
931 -696 130 -26 375 -23 510 6 265 56 494 183 680 375 148 154 243 307 306
496 56 166 69 266 63 470 -4 148 -9 191 -32 280 -98 375 -341 680 -682 852
-119 61 -229 100 -343 123 -94 19 -342 27 -435 14z m412 -78 c265 -51 494
-177 678 -372 165 -176 270 -379 322 -622 25 -114 24 -369 -1 -487 -54 -251
-168 -463 -346 -640 -244 -244 -547 -370 -890 -370 -202 0 -382 42 -559 130
-702 352 -917 1254 -446 1878 193 257 472 430 784 486 116 21 341 20 458 -3z"/>
<path d="M1116 2465 c-520 -107 -885 -527 -940 -1080 -8 -76 9 -242 34 -341
115 -447 484 -785 940 -859 489 -79 988 175 1210 615 90 179 124 324 124 525
0 153 -11 224 -55 360 -96 300 -304 538 -594 681 -167 82 -272 106 -480 110
-119 2 -190 -1 -239 -11z m439 -70 c103 -21 262 -84 347 -138 69 -43 211 -157
205 -164 -2 -2 -24 4 -48 13 -24 9 -87 18 -141 21 -94 5 -97 5 -123 -21 -22
-22 -26 -33 -21 -59 3 -18 9 -58 12 -89 6 -54 5 -59 -23 -86 -69 -69 -177 -69
-493 -2 -159 33 -342 45 -480 31 -172 -18 -270 -46 -444 -129 -19 -9 68 138
129 220 159 212 404 363 660 407 33 6 71 13 85 15 50 9 257 -3 335 -19z m536
-376 c108 -52 171 -114 218 -213 64 -134 63 -137 -20 -67 -68 57 -176 121
-204 121 -7 0 -24 -9 -39 -21 -23 -18 -26 -27 -26 -87 0 -94 -16 -141 -61
-184 -76 -72 -191 -74 -444 -8 -191 50 -306 64 -465 57 -239 -12 -500 -76
-782 -192 -24 -10 -23 14 3 126 24 101 45 126 152 180 133 68 257 98 432 106
143 7 275 -7 475 -49 108 -23 173 -31 255 -32 101 -1 115 1 167 27 73 36 102
79 102 156 1 31 -3 71 -8 90 l-8 34 89 -5 c76 -3 100 -9 164 -39z"/>
</g>
</svg>
